<svg xmlns="http://www.w3.org/2000/svg" viewBox="0 0 332.75 57.9"><defs><style>.cls-1{opacity:0.71;}.cls-2{fill:#fff;}</style></defs><title>Ativo 4</title><g id="Camada_2" data-name="Camada 2"><g id="Camada_1-2" data-name="Camada 1"><g class="cls-1"><path class="cls-2" d="M215.22,9.55V40.28c0,5.23-2.18,8-6.19,8.25l-.57-1.63c2-.11,4.42-1.49,4.42-6.41V11.77l-3.75-.11V9.55Z"/><path class="cls-2" d="M222.08,9.49V37.05c0,5.24,4.32,7.73,8.64,7.73s8.59-2.49,8.59-7.73V9.49h2.34V36.74c0,7.78-5.78,10.21-10.93,10.21s-11-2.43-11-10.21V9.49Zm10.15-8a1.62,1.62,0,0,1,2-1,1.45,1.45,0,0,1,.68,2.17L231.4,7.91h-1.87Z"/><path class="cls-2" d="M248.73,9.55l21,32.69V9.55H272v37h-2.29l-21-32.74V46.58h-2.34v-37Z"/><path class="cls-2" d="M280.15,9.55v37H277.8V11.77l-3.74-.11V9.55Z"/><path class="cls-2" d="M284.21,19.75c0-7.46,4.37-11.06,11-11.06,7,0,10.82,4.29,10.82,11.12v17c0,7.78-5.72,10.37-10.87,10.37s-11-2.59-11-10.37Zm2.35,17c0,5.67,4.11,8.1,8.58,8.1s8.64-2.17,8.64-8.15V19.38c0-5.5-3.39-8.41-8.64-8.41s-8.58,2.91-8.58,8.41Z"/><path class="cls-2" d="M322.81,9.55c7,0,9.88,4.76,9.88,11.32,0,3.49-.47,9.15-5.3,11.32l5.36,14.39h-2.39l-5.21-13.65c-.57,0-1.25.11-1.87.11H312.46V46.58h-2.34v-37ZM312.46,30.71h10.61c6.66,0,7.29-6.19,7.29-9.84,0-6-2.81-9-7.44-9H312.46Z"/><path class="cls-2" d="M93.56,13.33v5.06A20.6,20.6,0,0,0,89,16.49a17,17,0,0,0-4.59-.63,10,10,0,0,0-8,3.34c-1.9,2.23-2.86,5.35-2.86,9.37s1,7.15,2.86,9.37a10,10,0,0,0,8,3.34A16.92,16.92,0,0,0,89,40.64a20.44,20.44,0,0,0,4.52-1.9v5A21.68,21.68,0,0,1,89,45.33a23,23,0,0,1-5.07.53q-7.31,0-11.62-4.67T68,28.57q0-8.06,4.35-12.68t11.92-4.61a22.4,22.4,0,0,1,4.8.51A21.41,21.41,0,0,1,93.56,13.33Z"/><path class="cls-2" d="M108.25,11.27q6.94,0,10.9,4.59t4,12.71q0,8.09-4,12.69t-10.9,4.6q-7,0-10.91-4.6T93.4,28.57q0-8.12,3.94-12.71T108.25,11.27Zm0,4.59a8,8,0,0,0-6.76,3.4Q99,22.65,99,28.57t2.47,9.31a8.41,8.41,0,0,0,13.51,0c1.66-2.28,2.48-5.38,2.48-9.3s-.82-7-2.48-9.28A7.89,7.89,0,0,0,108.25,15.86Z"/><path class="cls-2" d="M150,18.39A14.12,14.12,0,0,1,154.79,13a12.1,12.1,0,0,1,6.53-1.73,9.22,9.22,0,0,1,7.8,3.61q2.75,3.6,2.75,10.25V45h-5.35V25.3c0-3.16-.54-5.5-1.64-7a5.77,5.77,0,0,0-5-2.29,8.15,8.15,0,0,0-6.53,2.79,11.31,11.31,0,0,0-2.41,7.62V45h-5.35V25.3q0-4.76-1.65-7A5.83,5.83,0,0,0,138.84,16a8.08,8.08,0,0,0-6.47,2.81,11.33,11.33,0,0,0-2.4,7.61V45h-5.35v-33H130v5.12a12.21,12.21,0,0,1,4.37-4.47,12.06,12.06,0,0,1,6-1.44,9.82,9.82,0,0,1,6,1.82A10.63,10.63,0,0,1,150,18.39Z"/><path class="cls-2" d="M180.53,40.07V57.55h-5.35V12.06h5.35v5a11.2,11.2,0,0,1,4.23-4.37,12.41,12.41,0,0,1,6.11-1.42A11.54,11.54,0,0,1,200.45,16q3.68,4.76,3.69,12.53T200.45,41.1a11.55,11.55,0,0,1-9.58,4.76,12.38,12.38,0,0,1-6.11-1.42A11.13,11.13,0,0,1,180.53,40.07Zm18.09-11.5q0-6-2.41-9.37a8.17,8.17,0,0,0-13.27,0q-2.41,3.4-2.41,9.37t2.41,9.37a8.17,8.17,0,0,0,13.27,0Q198.62,34.54,198.62,28.57Z"/><path class="cls-2" d="M23.63,37.56c-2.12,0-4.85-1.56-4.85-3.69v-12H4c-2.12,0-4,.91-4,3V53.51c0,2.12,1.87,4.39,4,4.39H32.56c2.12,0,3.44-2.27,3.44-4.39v-16Z"/><path class="cls-2" d="M17.22,16.77a1.91,1.91,0,0,1-1.8,2H1.8a1.91,1.91,0,0,1-1.8-2V2A1.91,1.91,0,0,1,1.8,0H15.42a1.91,1.91,0,0,1,1.8,2Z"/><path class="cls-2" d="M56.34,55.89a1.91,1.91,0,0,1-1.79,2H40.92a1.91,1.91,0,0,1-1.8-2V41.13a1.91,1.91,0,0,1,1.8-2H54.54a1.91,1.91,0,0,1,1.79,2Z"/><path class="cls-2" d="M56.34,32.15A3.84,3.84,0,0,1,52.5,36H24.18a3.85,3.85,0,0,1-3.84-3.85V3.84A3.85,3.85,0,0,1,24.18,0H52.5a3.84,3.84,0,0,1,3.84,3.84Z"/></g></g></g></svg>