<svg xmlns="http://www.w3.org/2000/svg" viewBox="0 0 646.19 181.78"><defs><style>.cls-1{fill:#fff;}</style></defs><title>Ativo 2</title><g id="Camada_2" data-name="Camada 2"><g id="Camada_1-2" data-name="Camada 1"><path class="cls-1" d="M2,5.1A4.21,4.21,0,0,1,3.51,1.93,5.79,5.79,0,0,1,7.6.57H30.39A35.77,35.77,0,0,1,40.48,1.93a21.32,21.32,0,0,1,8.16,4.42,20.64,20.64,0,0,1,5.5,7.93,31.44,31.44,0,0,1,2,11.8v.68a30.89,30.89,0,0,1-2,11.9,20.55,20.55,0,0,1-5.67,7.94,22.94,22.94,0,0,1-8.5,4.48A37.1,37.1,0,0,1,29.48,52.5H16.78V78.81a3.74,3.74,0,0,1-2.33,3.45,10.85,10.85,0,0,1-5,1.19,10.75,10.75,0,0,1-5.1-1.19A3.74,3.74,0,0,1,2,78.81ZM16.78,13.5V40.93h12.7q5.55,0,8.73-3.17t3.18-9.87V26.54q0-6.69-3.18-9.87T29.48,13.5Z"/><path class="cls-1" d="M65.2,5.1a4.46,4.46,0,0,1,1.3-3.18A4.57,4.57,0,0,1,70,.57H92.41a43.74,43.74,0,0,1,10.44,1.2,23.73,23.73,0,0,1,8.56,3.91,18.44,18.44,0,0,1,5.78,7.26,26.89,26.89,0,0,1,2.11,11.34q0,9.75-4.26,15.25a20.77,20.77,0,0,1-10.6,7.43L119.28,74.5a2.4,2.4,0,0,1,.45,1,4,4,0,0,1,.12.85,5.42,5.42,0,0,1-.85,2.78,9.9,9.9,0,0,1-2.16,2.49,11.39,11.39,0,0,1-2.95,1.75,8.31,8.31,0,0,1-3.23.68,5,5,0,0,1-2.89-.9,7.26,7.26,0,0,1-2.21-2.61l-16.1-31.3H79.94v29.6a3.74,3.74,0,0,1-2.27,3.45,11.41,11.41,0,0,1-10.15,0,3.73,3.73,0,0,1-2.32-3.45ZM79.94,13.5V37.64H92.41q5.55,0,8.85-2.66t3.29-9.36q0-6.69-3.29-9.41T92.41,13.5Z"/><path class="cls-1" d="M155.45,84.14A37,37,0,0,1,145,82.72a22.46,22.46,0,0,1-8.39-4.48,20.75,20.75,0,0,1-5.61-8,31.53,31.53,0,0,1-2-12.07V26.54a31.56,31.56,0,0,1,2-12.08,20.79,20.79,0,0,1,5.61-8A22.46,22.46,0,0,1,145,2a39.25,39.25,0,0,1,20.92,0,23,23,0,0,1,8.5,4.48,20.4,20.4,0,0,1,5.67,8,31.55,31.55,0,0,1,2,12.08V58.17a31.52,31.52,0,0,1-2,12.07,20.36,20.36,0,0,1-5.67,8,23,23,0,0,1-8.5,4.48A37.25,37.25,0,0,1,155.45,84.14Zm11.9-57.6q0-6.81-3.18-9.92t-8.73-3.12q-5.67,0-8.73,3.12t-3.06,9.92V58.17q0,6.8,3.06,9.92t8.73,3.13q5.55,0,8.73-3.13t3.18-9.92Z"/><path class="cls-1" d="M232.33,24.72c-.08-.91-.23-2-.45-3.23a10,10,0,0,0-1.53-3.69,9.53,9.53,0,0,0-3.46-3.06,13.34,13.34,0,0,0-6.35-1.25q-5.79,0-8.85,3.18t-3.06,9.87V58.17q0,6.69,3.11,9.86t9,3.18A12.71,12.71,0,0,0,226.89,70a8.94,8.94,0,0,0,3.4-3.06A11.18,11.18,0,0,0,231.82,63a32.27,32.27,0,0,0,.51-3.91,4.13,4.13,0,0,1,2.26-3.63,11,11,0,0,1,5-1q3.85,0,5.66,1.48t1.81,5.78a21.46,21.46,0,0,1-2,9.3,19.64,19.64,0,0,1-5.61,7.08,26.69,26.69,0,0,1-8.61,4.48A35.8,35.8,0,0,1,220,84.14a35.26,35.26,0,0,1-10.1-1.42,22.48,22.48,0,0,1-8.33-4.48,20.75,20.75,0,0,1-5.61-8,31.58,31.58,0,0,1-2-12.07V26.54A30.85,30.85,0,0,1,196,14.46a21.28,21.28,0,0,1,5.67-8A22.51,22.51,0,0,1,210,2,35.22,35.22,0,0,1,220.09.57,37.17,37.17,0,0,1,231,2.1a26.54,26.54,0,0,1,8.56,4.31,19.35,19.35,0,0,1,5.55,6.81,19.81,19.81,0,0,1,2,8.9q0,4.42-1.81,5.84t-5.55,1.42a11.7,11.7,0,0,1-5.22-1A3.9,3.9,0,0,1,232.33,24.72Z"/><path class="cls-1" d="M271.78,36.17H289A3.9,3.9,0,0,1,292.47,38a7.28,7.28,0,0,1,.06,7.88A3.82,3.82,0,0,1,289,47.73H271.78V70.53h32.09a3.8,3.8,0,0,1,3.46,2,9.11,9.11,0,0,1,.06,8.9,3.76,3.76,0,0,1-3.52,2H263.5A8.49,8.49,0,0,1,259,82.26a3.79,3.79,0,0,1-2-3.45V5.22a3.79,3.79,0,0,1,2-3.45A8.49,8.49,0,0,1,263.5.57h40.37a3.76,3.76,0,0,1,3.52,2,8.77,8.77,0,0,1,1.13,4.31,8.76,8.76,0,0,1-1.19,4.59,3.8,3.8,0,0,1-3.46,2H271.78Z"/><path class="cls-1" d="M338.79,71.21a16.46,16.46,0,0,0,8.91-2.38q3.79-2.38,3.79-7.48a9.19,9.19,0,0,0-2.72-6.86A28.21,28.21,0,0,0,342,49.72q-4-2.1-8.73-4a42.15,42.15,0,0,1-8.73-4.82,25.4,25.4,0,0,1-6.74-7.2q-2.73-4.3-2.72-11A21,21,0,0,1,317.59,12,21.11,21.11,0,0,1,324,5a26.66,26.66,0,0,1,8.85-3.85A41.41,41.41,0,0,1,342.64,0q2.5,0,6.18.34a35.81,35.81,0,0,1,7.09,1.36,19.53,19.53,0,0,1,5.84,2.78,5.43,5.43,0,0,1,2.43,4.59,9.12,9.12,0,0,1-.34,2.32,9.79,9.79,0,0,1-1.08,2.55A7.07,7.07,0,0,1,360.9,16a4.2,4.2,0,0,1-2.61.85,5.37,5.37,0,0,1-2.61-.68c-.83-.45-1.81-.94-2.95-1.47a27.79,27.79,0,0,0-4.14-1.47,22.46,22.46,0,0,0-6-.68q-6.12,0-9.47,2.33a7.37,7.37,0,0,0-3.34,6.41A7,7,0,0,0,332.55,27a30.71,30.71,0,0,0,6.75,4q4,1.82,8.73,3.8a38.94,38.94,0,0,1,8.73,5.1,26.75,26.75,0,0,1,6.75,7.82q2.72,4.71,2.72,12.08a26.14,26.14,0,0,1-2,10.71,21.26,21.26,0,0,1-5.61,7.65,24.44,24.44,0,0,1-8.51,4.65,35.15,35.15,0,0,1-10.83,1.59,41.23,41.23,0,0,1-10.37-1.25,33.11,33.11,0,0,1-8.34-3.29A19.4,19.4,0,0,1,315,75.41a8,8,0,0,1-2-5,7.58,7.58,0,0,1,.51-2.55A9.6,9.6,0,0,1,315,65.26a9.1,9.1,0,0,1,2-2,4.29,4.29,0,0,1,2.49-.79,5.22,5.22,0,0,1,3.35,1.36q1.64,1.36,3.74,3a26.27,26.27,0,0,0,5,3A16.88,16.88,0,0,0,338.79,71.21Z"/><path class="cls-1" d="M398,71.21a16.43,16.43,0,0,0,8.9-2.38q3.79-2.38,3.8-7.48A9.17,9.17,0,0,0,408,54.48a28.24,28.24,0,0,0-6.75-4.76q-4-2.1-8.73-4a42,42,0,0,1-8.73-4.82,25.44,25.44,0,0,1-6.75-7.2,20.24,20.24,0,0,1-2.72-11A21,21,0,0,1,376.78,12a21.08,21.08,0,0,1,6.4-7A26.69,26.69,0,0,1,392,1.19,41.51,41.51,0,0,1,401.84,0q2.49,0,6.17.34A35.71,35.71,0,0,1,415.1,1.7a19.43,19.43,0,0,1,5.84,2.78,5.42,5.42,0,0,1,2.44,4.59,9.26,9.26,0,0,1-.34,2.32A9.71,9.71,0,0,1,422,13.94a7,7,0,0,1-1.87,2.1,4.2,4.2,0,0,1-2.61.85,5.38,5.38,0,0,1-2.61-.68q-1.25-.68-2.94-1.47a28,28,0,0,0-4.14-1.47,22.4,22.4,0,0,0-5.95-.68q-6.13,0-9.47,2.33A7.38,7.38,0,0,0,389,21.32,7,7,0,0,0,391.75,27a30.27,30.27,0,0,0,6.75,4c2.68,1.21,5.59,2.47,8.73,3.8A38.77,38.77,0,0,1,416,40a26.7,26.7,0,0,1,6.74,7.82q2.72,4.71,2.72,12.08a26.22,26.22,0,0,1-2,10.71,21.34,21.34,0,0,1-5.62,7.65,24.41,24.41,0,0,1-8.5,4.65,35.17,35.17,0,0,1-10.83,1.59,41.24,41.24,0,0,1-10.38-1.25,33.05,33.05,0,0,1-8.33-3.29,19.25,19.25,0,0,1-5.5-4.53,8,8,0,0,1-2-5,7.58,7.58,0,0,1,.51-2.55,9.66,9.66,0,0,1,1.42-2.61,9,9,0,0,1,2-2,4.29,4.29,0,0,1,2.49-.79,5.22,5.22,0,0,1,3.34,1.36q1.65,1.36,3.74,3a26,26,0,0,0,5,3A16.84,16.84,0,0,0,398,71.21Z"/><path class="cls-1" d="M461.14,84.14a37.09,37.09,0,0,1-10.49-1.42,22.43,22.43,0,0,1-8.4-4.48,20.74,20.74,0,0,1-5.61-8,31.48,31.48,0,0,1-2-12.07V26.54a31.51,31.51,0,0,1,2-12.08,20.78,20.78,0,0,1,5.61-8A22.42,22.42,0,0,1,450.65,2a39.27,39.27,0,0,1,20.92,0,23,23,0,0,1,8.5,4.48,20.55,20.55,0,0,1,5.67,8,31.66,31.66,0,0,1,2,12.08V58.17a31.63,31.63,0,0,1-2,12.07,20.52,20.52,0,0,1-5.67,8,23,23,0,0,1-8.5,4.48A37.26,37.26,0,0,1,461.14,84.14ZM473,26.54q0-6.81-3.18-9.92t-8.73-3.12q-5.66,0-8.73,3.12t-3.07,9.92V58.17q0,6.8,3.07,9.92t8.73,3.13q5.56,0,8.73-3.13T473,58.17Z"/><path class="cls-1" d="M21.32,177.7q9.3,0,14.12-4.65t4.82-13.72q0-7.25-2.83-11.17A20.73,20.73,0,0,0,30.33,142a47,47,0,0,0-9.19-3.69A49.77,49.77,0,0,1,12,134.67a20.54,20.54,0,0,1-7.09-6Q2,124.86,2,117.83a20.39,20.39,0,0,1,2.15-10,16.61,16.61,0,0,1,5.5-6,20.22,20.22,0,0,1,7.25-2.9,40.28,40.28,0,0,1,7.43-.73,39,39,0,0,1,6.75.57,38.09,38.09,0,0,1,5.73,1.42,16.09,16.09,0,0,1,4,1.87q1.47,1,1.47,2a2.94,2.94,0,0,1-.62,1.59,1.75,1.75,0,0,1-1.42.91,3.91,3.91,0,0,1-1.7-.68,23.63,23.63,0,0,0-3.06-1.47A34.32,34.32,0,0,0,30.84,103a27.46,27.46,0,0,0-6.58-.68,31,31,0,0,0-6.41.68A17,17,0,0,0,12,105.35,13,13,0,0,0,7.77,110a15.21,15.21,0,0,0-1.65,7.48,14.86,14.86,0,0,0,1.65,7.43,14.43,14.43,0,0,0,4.3,4.77,25.92,25.92,0,0,0,6.13,3.12q3.45,1.25,7,2.49t7,2.83a21.49,21.49,0,0,1,6.12,4.2A19.4,19.4,0,0,1,42.69,149a26.74,26.74,0,0,1,1.64,10,28.09,28.09,0,0,1-1.7,10.32A19.3,19.3,0,0,1,38,176.4a18,18,0,0,1-7.08,4.07,29.91,29.91,0,0,1-9,1.31,30.09,30.09,0,0,1-9.53-1.36,28.38,28.38,0,0,1-6.86-3.23,15.7,15.7,0,0,1-4.14-3.8A6,6,0,0,1,0,170.33a2.4,2.4,0,0,1,.68-1.65,1.86,1.86,0,0,1,1.25-.73q.8,0,1.76,1.53a16.28,16.28,0,0,0,3,3.35,21.47,21.47,0,0,0,5.44,3.34A22.79,22.79,0,0,0,21.32,177.7Z"/><path class="cls-1" d="M67.46,137.56H85.6a1.74,1.74,0,0,1,1.42.62,2.36,2.36,0,0,1,.5,1.53,2.21,2.21,0,0,1-.45,1.3,1.69,1.69,0,0,1-1.47.62H67.46V177h38.33a1.74,1.74,0,0,1,1.42.63,2.37,2.37,0,0,1,.51,1.53,2.21,2.21,0,0,1-.45,1.3,1.7,1.7,0,0,1-1.47.63H65.42a2.17,2.17,0,0,1-1.42-.51,1.85,1.85,0,0,1-.62-1.53v-78.8A1.85,1.85,0,0,1,64,98.73a2.16,2.16,0,0,1,1.42-.51h40.37a1.71,1.71,0,0,1,1.47.62,2.22,2.22,0,0,1,.45,1.3,2.38,2.38,0,0,1-.51,1.53,1.74,1.74,0,0,1-1.42.62H67.46Z"/><path class="cls-1" d="M126.08,181.1a2.18,2.18,0,0,1-1.42-.51,1.87,1.87,0,0,1-.62-1.53V100.14a1.69,1.69,0,0,1,.62-1.47,2.45,2.45,0,0,1,2.84,0,1.69,1.69,0,0,1,.62,1.47V177H162.6a1.44,1.44,0,0,1,1.3.63,2.62,2.62,0,0,1,.4,1.42,2.58,2.58,0,0,1-.4,1.41,1.43,1.43,0,0,1-1.3.63Z"/><path class="cls-1" d="M183.57,137.56h18.14a1.74,1.74,0,0,1,1.42.62,2.35,2.35,0,0,1,.51,1.53,2.2,2.2,0,0,1-.45,1.3,1.69,1.69,0,0,1-1.48.62H183.57V177H221.9a1.73,1.73,0,0,1,1.41.63,2.33,2.33,0,0,1,.51,1.53,2.17,2.17,0,0,1-.45,1.3,1.69,1.69,0,0,1-1.47.63H181.53a2.18,2.18,0,0,1-1.42-.51,1.86,1.86,0,0,1-.62-1.53v-78.8a1.86,1.86,0,0,1,.62-1.53,2.18,2.18,0,0,1,1.42-.51H221.9a1.7,1.7,0,0,1,1.47.62,2.18,2.18,0,0,1,.45,1.3,2.34,2.34,0,0,1-.51,1.53,1.73,1.73,0,0,1-1.41.62H183.57Z"/><path class="cls-1" d="M234.37,102.3a1.91,1.91,0,0,1-1.48-.62,2.07,2.07,0,0,1,0-2.84,1.91,1.91,0,0,1,1.48-.62h44.33a1.86,1.86,0,0,1,2,1.92,2.6,2.6,0,0,1-.45,1.47,1.77,1.77,0,0,1-1.59.68H258.62v76.76a1.87,1.87,0,0,1-.62,1.53,2.21,2.21,0,0,1-2.84,0,1.85,1.85,0,0,1-.63-1.53V102.3Z"/><path class="cls-1" d="M295.93,100.14a1.68,1.68,0,0,1,.62-1.47,2.45,2.45,0,0,1,2.84,0,1.69,1.69,0,0,1,.62,1.47v78.92a1.86,1.86,0,0,1-.62,1.53,2.22,2.22,0,0,1-2.84,0,1.86,1.86,0,0,1-.62-1.53Z"/><path class="cls-1" d="M343.1,173.16l22.56-73.47a1.81,1.81,0,0,1,1.82-1.47,2.4,2.4,0,0,1,1.59.57,1.71,1.71,0,0,1,.68,1.36c0,.16,0,.25-.06.28s-.06.14-.06.28l-24.38,79.49a2.14,2.14,0,0,1-2.15,1.59,2,2,0,0,1-2-1.59l-24.6-79.49a1.88,1.88,0,0,1,.51-2,2.31,2.31,0,0,1,1.42-.45,1.94,1.94,0,0,1,2,1.47Z"/><path class="cls-1" d="M407.39,181.78a29.67,29.67,0,0,1-8.73-1.25,17.45,17.45,0,0,1-7-4,19,19,0,0,1-4.65-7.25,30.49,30.49,0,0,1-1.7-10.83V121.57a30.49,30.49,0,0,1,1.7-10.83,19,19,0,0,1,4.65-7.26,17.64,17.64,0,0,1,7-4,31.32,31.32,0,0,1,17.46,0,18.1,18.1,0,0,1,7.08,4,18.74,18.74,0,0,1,4.71,7.26,30.55,30.55,0,0,1,1.7,10.83v36.86a30.55,30.55,0,0,1-1.7,10.83,18.72,18.72,0,0,1-4.71,7.25,17.9,17.9,0,0,1-7.08,4A29.71,29.71,0,0,1,407.39,181.78Zm18.14-60.21q0-10-4.82-14.63t-13.32-4.65q-8.5,0-13.27,4.65t-4.76,14.63v36.86q0,10,4.76,14.63t13.27,4.65q8.51,0,13.32-4.65t4.82-14.63Z"/><path class="cls-1" d="M645.71,82.42c-4.52-37.61-40-64.26-79.3-59.54-25.89,3.11-47,19.09-57,40.4-33,52.86-71.06,29.64-71.06,29.64,23.55,39.29,102.27,80.79,154.21,64.31C626.62,148.46,649.85,116.83,645.71,82.42Zm-91.34,46.22a2.13,2.13,0,0,1-1.18,1.66l-20,8.24a4.21,4.21,0,0,1-2.42.19,2.14,2.14,0,0,1-1.75-1.23l-2.3-5.58a9.38,9.38,0,0,1-.34-5.72,24,24,0,0,1,2.34-6.21l3.85-6.24a29.75,29.75,0,0,0,2.84-6.17,7.56,7.56,0,0,0,0-5.28,5.73,5.73,0,0,0-2.83-3,5.41,5.41,0,0,0-4.64.09,5.72,5.72,0,0,0-3.15,2.82,5.37,5.37,0,0,0,.17,4.48,2.71,2.71,0,0,1-.23,2.4,4.61,4.61,0,0,1-2.43,2q-3.32,1.37-5-2.63a10.06,10.06,0,0,1,.49-9.11,14.38,14.38,0,0,1,7.37-6.46,14.94,14.94,0,0,1,10.32-.61A11,11,0,0,1,542.82,99a13.16,13.16,0,0,1,.81,7.26,20.81,20.81,0,0,1-2.44,7q-1.83,3.22-3.76,6.11a36.56,36.56,0,0,0-3.06,5.45,5.36,5.36,0,0,0-.46,4.17l.57,1.38,16-6.59a2.21,2.21,0,0,1,2,.27,3.92,3.92,0,0,1,1.65,2A4.26,4.26,0,0,1,554.37,128.63Zm27.3-13.38q-2.36,4.66-8.48,7.19t-11.05.88q-4.93-1.64-7.74-8.45l-6.59-16q-2.81-6.81-.48-11.45t8.45-7.17q6.12-2.53,11.08-.89t7.77,8.44l6.59,16Q584,110.59,581.67,115.25ZM601,109.83a6.23,6.23,0,0,1-5.23,2.16,2.07,2.07,0,0,1-1.79-1.27L581.31,80.18l-1.07,2.59a2.14,2.14,0,0,1-1.16,1.08,2.24,2.24,0,0,1-2.09-.21,3.62,3.62,0,0,1-1.54-1.78,3.24,3.24,0,0,1,.32-3.28l4.62-7.94a2.55,2.55,0,0,1,1.31-1.21,4.37,4.37,0,0,1,2.57-.26A2.18,2.18,0,0,1,586,70.47l15.35,37.18A2.07,2.07,0,0,1,601,109.83Zm19.19-40.67-3,33.78a2.35,2.35,0,0,1-1.67,2,5.67,5.67,0,0,1-3.71.26,3.48,3.48,0,0,1-2.52-2,2.71,2.71,0,0,1-.2-1.46l3.87-32.94-1.56-3.78-12,4.94,1.91,4.63a2.16,2.16,0,0,1-.44,2.19,5.43,5.43,0,0,1-2.35,1.77,5.07,5.07,0,0,1-2.89.39,2.17,2.17,0,0,1-1.77-1.28l-3.64-8.81a2.22,2.22,0,0,1,.34-2,4,4,0,0,1,2-1.68l20.31-8.39a4.15,4.15,0,0,1,2.48-.15,2.2,2.2,0,0,1,1.75,1.15l2.69,6.52A11.88,11.88,0,0,1,620.15,69.16Z"/><path class="cls-1" d="M567.19,90.9q-2.72-6.58-8.72-4.1t-3.23,9l6.59,16q2.72,6.58,8.67,4.12t3.29-9.06Zm.26,12.06a2.62,2.62,0,0,1-1.58,1.61,2.71,2.71,0,0,1-2.28,0,3.29,3.29,0,0,1-1.63-1.83,3.24,3.24,0,0,1-.15-2.4,2.75,2.75,0,0,1,1.65-1.6,2.67,2.67,0,0,1,2.24,0,3.25,3.25,0,0,1,1.58,1.81A3.38,3.38,0,0,1,567.45,103Z"/></g></g></svg>